<?xml version="1.0" standalone="no"?><!DOCTYPE svg PUBLIC "-//W3C//DTD SVG 1.1//EN" "http://www.w3.org/Graphics/SVG/1.1/DTD/svg11.dtd"><svg t="1535964477698" class="icon" style="" viewBox="0 0 1024 1024" version="1.1" xmlns="http://www.w3.org/2000/svg" p-id="928" xmlns:xlink="http://www.w3.org/1999/xlink" width="16" height="16"><defs><style type="text/css"></style></defs><path d="M546.4 513L988.5 44.9c9.2-9.7 8.8-25.1-1-34.3-9.7-9.2-25-8.8-34.3 1L513.1 477.7 72.9 11.6c-9.2-9.8-24.5-10.2-34.3-1-9.7 9.2-10.2 24.5-1 34.3L479.8 513 37.6 981.1c-9.2 9.7-8.8 25.1 1 34.3 4.7 4.4 10.7 6.6 16.6 6.6 6.4 0 12.9-2.5 17.6-7.6L513 548.3l440.2 466.1c4.8 5.1 11.2 7.6 17.6 7.6 6 0 12-2.2 16.6-6.6 9.7-9.2 10.2-24.5 1-34.3L546.4 513z" fill="#ffffff" p-id="929"></path></svg>